<svg width="48" height="48" viewBox="0 0 48 48" fill="none" xmlns="http://www.w3.org/2000/svg">
<g clip-path="url(#clip0_2_11)">
<path d="M30 2H18V6H30V2ZM22 28H26V16H22V28ZM38.06 14.78L40.9 11.94C40.04 10.92 39.1 9.96 38.08 9.12L35.24 11.96C32.14 9.48 28.24 8 24 8C14.06 8 6 16.06 6 26C6 35.94 14.04 44 24 44C33.96 44 42 35.94 42 26C42 21.76 40.52 17.86 38.06 14.78ZM24 40C16.26 40 10 33.74 10 26C10 18.26 16.26 12 24 12C31.74 12 38 18.26 38 26C38 33.74 31.74 40 24 40Z" fill="#49DFC4"/>
</g>
<defs>
<clipPath id="clip0_2_11">
<rect width="48" height="48" fill="white"/>
</clipPath>
</defs>
</svg>
